<svg xmlns="http://www.w3.org/2000/svg" width="36" height="45"><path fill="#0e71a6" d="M18 0v9.66c4.255 0 7.716 3.32 7.716 7.404 0 4.081-3.461 7.402-7.716 7.402V45l14.124-17.036C34.659 24.887 36 21.19 36 17.27 36 7.747 27.925 0 18 0z"/><path fill="#fff" d="M25 17.5c0-4.136-3.14-7.5-7-7.5v15c3.86 0 7-3.365 7-7.5z"/><path fill="#135b82" d="M10.284 17.064c0-4.083 3.461-7.403 7.716-7.403V0C8.075 0 0 7.747 0 17.269c0 3.92 1.34 7.618 3.88 10.699L18 45V24.466c-4.255 0-7.716-3.32-7.716-7.402z"/><path fill="#f3f3f3" d="M11 17.5c0 4.135 3.14 7.5 7 7.5V10c-3.86 0-7 3.364-7 7.5z"/></svg>