<svg xmlns="http://www.w3.org/2000/svg" width="31" height="29"><path d="M15.381 28.39c8.296 0 15.021-6.355 15.021-14.195S23.677 0 15.382 0C7.084 0 .36 6.355.36 14.195s6.725 14.196 15.021 14.196z"/><path fill="#fff" d="M19.955 6.683l-2.242-.003c-2.519 0-4.146 1.5-4.146 3.823v1.763h-2.255c-.194 0-.352.141-.352.316v2.554c0 .175.158.317.352.317h2.255v6.444c0 .175.157.317.352.317h2.94c.196 0 .353-.142.353-.317v-6.444h2.636c.195 0 .352-.142.352-.317l.001-2.554a.302.302 0 0 0-.103-.224.374.374 0 0 0-.25-.092h-2.636V10.77c0-.718.19-1.082 1.232-1.082h1.51c.195 0 .353-.143.353-.318V7c0-.175-.158-.316-.352-.317z"/></svg>