<svg xmlns="http://www.w3.org/2000/svg" width="31" height="29"><path fill="#4d4d4d" d="M14.761 16.705c1.705 0 3.094-1.31 3.094-2.922 0-.637-.22-1.224-.585-1.704a3.147 3.147 0 0 0-2.507-1.219 3.15 3.15 0 0 0-2.508 1.218 2.803 2.803 0 0 0-.585 1.704c-.002 1.612 1.386 2.923 3.091 2.923z"/>x<path fill="#46687a" d="M21.39 10.017V7.52l-.344.001-2.306.007.009 2.497z"/><path fill="#4d4d4d" d="M23.734 19.149c0 1.721-1.48 3.12-3.3 3.12H9.958c-1.82 0-3.3-1.399-3.3-3.12V9.243c0-1.721 1.48-3.12 3.3-3.12h10.475c1.82 0 3.301 1.399 3.301 3.12zM15.201 0C6.92 0 .18 6.368.18 14.195s6.739 14.196 15.021 14.196 15.021-6.369 15.021-14.196S23.484 0 15.202 0z"/><path fill="#4d4d4d" d="M20.002 14.056c0 2.243-2.154 4.07-4.802 4.07-2.649 0-4.802-1.827-4.802-4.07 0-.54.127-1.055.353-1.526H8.13v6.09c0 .788.754 1.425 1.683 1.425h10.772c.927 0 1.683-.637 1.683-1.424V12.53h-2.623c.228.471.357.987.357 1.526z"/></svg>