<svg width="721" height="429" xmlns="http://www.w3.org/2000/svg"><path d="M208.875 257.135c23.814-19.335 43.701-38.714 57.558-56.397 3.83-20.147 12.118-49.137 23.896-78.945-6.702.377-13.519.183-20.493-.738-35.976-4.723-9.937-37.235-.61-46.823 8.58 4.164 23.555 4.796 41.25 3.272 6.703-12.77 14.005-24.904 21.819-35.69 6.498-8.977 21.484-25.89 27.2-26.702 5.155-.744 30.126 27.971 26.563 31.835-5.423 5.84-10.84 12.76-16.192 20.467 26.54-6.173 51.064-13.729 64.135-19.14 5.021 2.547 5.097 6.249.677 10.923l-6.993 7.155c-10.414 10.532-17.235 17.525-61.118 34.106-7.126 2.688-14.186 5.432-21.238 8.02-33.636 63.626-60.277 142.34-62.357 148.52-.371 1.115-22.256 12.053-19.393-33.847-7.465 12.693-19.733 29.926-41.096 48.7-35.247 36.018-77.035 48.226-88.3 12.23-12.215-39.066 23.637-99.645 56.268-123.256 42.92-31.024 63.08-13.09 65.92 3.51 8.45 49.122-84.756 98.634-84.756 98.634-7.536 13.394 6.479 17.506 29.259 0 2.15-1.667 4.912-3.612 8.001-5.834zm-70.57-157.748c4.18-5.072 8.081-8.938 10.486-9.483 5.097-1.136 31.02 29.287 27.82 34.057C98.057 240.654 86.205 416.84 83.67 426.607c-.352 1.384-29.954 16.505-28.782-51.057.489-27.254 6.183-118.38 43.166-205.346-20.606 25.754-40.184 51.217-71.105 64.544-33.727 14.53-27.543-26.94-24.304-40.049 32.603-2.919 108.907-79.315 130.363-107.687 5.687-.41 7.65 2.748 6.116 9.082l-.82 3.293zm476.157 42.835c-9.141 11.888-16.45 22.815-19.947 30.681-13.881 31.244-16.806 43.827-14.09 54.626 1.571 6.278 7.44 3.883 9.498.573 8.513-13.526 19.146-33.232 31.201-50.753 11.381 49.78 30.317 98.643 45.794 120.255 5.85 8.119 18.054 14.033 23.37 17.735 10.233 7.174 14.292 6.62 16.769 7.66.371-.143.733-.286 1.086-.41-9.817-22.97-45.999-113.412-54.055-183.866 21.345-23.397 40.517-45.366 66.912-62.517-11.652-15.922-15.025-16.39-31.383-10.036-6.703 2.61-20.853 15.184-36.34 31.252.154-1.408.33-2.793.531-4.155.763-5.227-42.434-26.902-45.664-23.344 0 0 2.858 38.818 3.744 50.075.586 7.215 1.458 14.655 2.574 22.224zM394.68 166.304c-6.083 16.327-12.824 36.191-18.669 57.644-2.039 7.508 2.334 4.217 5.43 9.52 2.295 3.912 7.601 11.07 11.752 13.564a6.545 6.545 0 0 1-.123.23l.129-.226c2.154 1.293 3.997 1.327 4.944-1.003a582.727 582.727 0 0 1 7.61-17.841c13.263-18.097 32.226-40.34 48.204-54.843-9.66 23.824-14.472 47.825-6.037 61.213 3.734 5.963 10.308 12.268 19.95 10.618 19.498-3.34 44.51-35.539 64.334-66.278-2.66 30.38 27.344 56.989 28.595 42.768 3.773-42.634 28.372-76.015 39.538-90.697-1.172-1.068 2.087-2.89-.562-7.222-7.44-12.163-21.999-22.323-23.894-22.82-8.46-2.241-11.51 7.642-11.51 7.642a399.648 399.648 0 0 1-4.648 9.947c-17.587 23.98-49.49 59.672-66.053 77.644-18.245 19.852-9.632-3.12-5.154-10.408 10.356-16.81 18.702-28.887 28.582-42.453 5.002-6.898 11.7-7.9 8.108-16.867-3.164-7.918-16.673-23.964-24.505-22.676-4.14.698-11.432 8.249-19.452 19.532-17.24 14.02-37.143 38.725-52.316 59.268 3.564-6.569 7.042-13.143 10.626-20.727 5.697-12.068 12.88-24.45.333-34.649-5.836-4.737-10.362-9.414-14.562-11.129.349-.318.65-.496.899-.517-.44.036-.933.137-1.477.3-4.033-1.388-7.803.116-12.201 7.134-11.713 8.596-28.127 23.676-43.487 40.129a8916.79 8916.79 0 0 1 7.015-17.498c-9.556-12.364-10.061-10.246-17.826-11.086-12.443-1.288-48.19 70.749-52.2 97.442-2.077 13.995 22.618 33.094 25.438 25.91a18975.139 18975.139 0 0 1 22.848-57.811c14.826-19.326 31.072-29.255 40.341-33.754zm185.89-89.732c-11.452-30.156 17.016-67.906 27.648-75.557 9.937-7.136 35.833 25.7 29.04 25.52 5.706.152-25.276 11.266-46.99 59.214 0 0-8.06-4.913-9.698-9.177zm-13.873 207.187c-19.217-12.145-200.855-36.548-360.153 39.753-56.716 27.15-38.061 87.94-18.826 76.663 171.207-100.513 334.096-97.04 394.68-97.804 9.48-.086-6.46-12.755-15.7-18.612zM225.74 183.692c2.077 6.506-24.78 37.693-48.294 51.411 0 0 37.519-66.15 48.294-51.41z" fill-rule="evenodd"/></svg>