<svg xmlns="http://www.w3.org/2000/svg" width="145" height="145"><path fill="#fff" d="M136.976 39.317c-5.077-9.848-12.481-18.543-21.411-25.147a2.951 2.951 0 0 0-3.509 4.746c8.207 6.068 15.01 14.058 19.676 23.105 4.888 9.48 7.367 19.735 7.367 30.48 0 36.722-29.877 66.598-66.599 66.598-36.722 0-66.599-29.876-66.599-66.599S35.778 5.901 72.5 5.901A2.951 2.951 0 0 0 72.5 0C32.523 0 0 32.523 0 72.5S32.523 145 72.5 145 145 112.477 145 72.5c0-11.53-2.774-23.004-8.024-33.183z"/><path fill="#fff" d="M53.489 38.387A2.97 2.97 0 0 0 52 40.965v65.07A2.954 2.954 0 0 0 54.944 109c1.625 0 2.943-1.327 2.943-2.965V46.181l43.581 26.133-32.047 20.799a2.978 2.978 0 0 0-.88 4.098 2.93 2.93 0 0 0 4.068.887l36.042-23.391A2.97 2.97 0 0 0 110 72.162a2.97 2.97 0 0 0-1.438-2.496L56.45 38.417a2.925 2.925 0 0 0-2.96-.03z"/></svg>