<svg xmlns="http://www.w3.org/2000/svg" width="30" height="29"><path d="M15.021 28.39c8.296 0 15.021-6.355 15.021-14.195S23.317 0 15.022 0C6.724 0 0 6.355 0 14.195s6.725 14.196 15.021 14.196z"/><path fill="#fff" d="M13.93 20.83h1.163s.35-.038.53-.227c.165-.174.16-.5.16-.5s-.023-1.526.7-1.75c.714-.222 1.63 1.474 2.6 2.127.735.493 1.293.385 1.293.385l2.596-.035s1.358-.082.714-1.127c-.053-.086-.375-.773-1.93-2.186-1.628-1.48-1.41-1.24.55-3.798 1.195-1.558 1.672-2.51 1.523-2.917-.142-.388-1.02-.285-1.02-.285l-2.923.018s-.217-.03-.378.065c-.157.092-.258.307-.258.307s-.462 1.206-1.08 2.23c-1.3 2.164-1.821 2.278-2.034 2.144-.495-.313-.371-1.258-.371-1.929 0-2.096.325-2.97-.633-3.197-.318-.075-.551-.125-1.364-.133-1.043-.01-1.926.004-2.426.243-.332.16-.589.515-.432.535.193.026.63.116.862.425.3.399.29 1.295.29 1.295s.171 2.468-.403 2.774c-.394.21-.934-.219-2.094-2.182a18.075 18.075 0 0 1-1.044-2.116s-.086-.208-.24-.319c-.188-.135-.45-.177-.45-.177l-2.778.017s-.416.012-.57.19c-.136.157-.01.484-.01.484s2.174 4.98 4.636 7.489c2.258 2.3 4.822 2.15 4.822 2.15z"/></svg>